<svg xmlns="http://www.w3.org/2000/svg" width="1200" height="700" viewBox="0 0 1200 700">
<rect width="1200" height="700" fill="#f8fafc"/>
<text x="600" y="85" text-anchor="middle" font-family="Arial" font-size="38" fill="#0f172a">General Weighted-Encoding MAC Array</text>
<g transform="translate(180,150)">
<rect x="0" y="0" width="180" height="120" rx="18" fill="#dbeafe" stroke="#93c5fd"/><text x="90" y="68" text-anchor="middle" font-family="Arial" font-size="30" fill="#1e3a8a">Input</text>
<rect x="280" y="0" width="220" height="120" rx="18" fill="#e0e7ff" stroke="#a5b4fc"/><text x="390" y="68" text-anchor="middle" font-family="Arial" font-size="28" fill="#3730a3">Encoding</text>
<rect x="620" y="-40" width="280" height="200" rx="18" fill="#1d4ed8"/><text x="760" y="40" text-anchor="middle" font-family="Arial" font-size="32" fill="white">64 × 64</text><text x="760" y="90" text-anchor="middle" font-family="Arial" font-size="32" fill="white">MAC Array</text>
<rect x="980" y="0" width="180" height="120" rx="18" fill="#ecfeff" stroke="#67e8f9"/><text x="1070" y="68" text-anchor="middle" font-family="Arial" font-size="30" fill="#155e75">Output</text>
<line x1="180" y1="60" x2="280" y2="60" stroke="#64748b" stroke-width="6"/>
<line x1="500" y1="60" x2="620" y2="60" stroke="#64748b" stroke-width="6"/>
<line x1="900" y1="60" x2="980" y2="60" stroke="#64748b" stroke-width="6"/>
</g>
<rect x="270" y="500" width="220" height="100" rx="18" fill="#ffffff" stroke="#cbd5e1"/><text x="380" y="560" text-anchor="middle" font-family="Arial" font-size="26" fill="#334155">Power ↓ 43.10%</text>
<rect x="520" y="500" width="220" height="100" rx="18" fill="#ffffff" stroke="#cbd5e1"/><text x="630" y="560" text-anchor="middle" font-family="Arial" font-size="26" fill="#334155">Area ↓ 23.69%</text>
<rect x="770" y="500" width="220" height="100" rx="18" fill="#ffffff" stroke="#cbd5e1"/><text x="880" y="560" text-anchor="middle" font-family="Arial" font-size="26" fill="#334155">15 nm, 5 GHz</text>
</svg>